<?xml version="1.0" encoding="utf-8"?>
<!-- Generator: Adobe Illustrator 25.2.1, SVG Export Plug-In . SVG Version: 6.00 Build 0)  -->
<svg version="1.1" xmlns="http://www.w3.org/2000/svg" xmlns:xlink="http://www.w3.org/1999/xlink" x="0px" y="0px"
	 viewBox="0 0 1024 1024" style="enable-background:new 0 0 1024 1024;" xml:space="preserve">
<style type="text/css">
	.st0{fill:#6EC17D;}
	.st1{fill:#F1D0A5;}
	.st2{fill:#F1B986;}
	.st3{fill:#DFEAEF;}
	.st4{fill:#B4D0D5;}
	.st5{fill:#665E66;}
	.st6{fill:#454045;}
	.st7{fill:#AA593D;}
	.st8{fill:#934D36;}
	.st9{fill:#F4DD45;}
	.st10{fill:#ECC32E;}
	.st11{fill:#DA4A54;}
	.st12{fill:#C32430;}
	.st13{fill:#DD636E;}
	.st14{fill:#B3E59F;}
	.st15{fill:#A4CCFF;}
	.st16{fill:#FF8086;}
	.st17{fill:#E5646E;}
	.st18{fill:#95D6A4;}
	.st19{fill:#8BB3EA;}
</style>
<g id="Fondo_xA0_Imagen_3_">
</g>
<g id="Fondo_xA0_Imagen_1_">
</g>
<g id="Rectángulo_1_xA0_Imagen_1_">
</g>
<g id="Capa_5">
</g>
<g id="Layer_xA0_Imagen_1_">
	<g>
		<g>
			<g>
				<path class="st0" d="M720.92,273.24h148.19c8,0,14.49-6.49,14.49-14.49v-128.4c0-8-6.49-14.49-14.49-14.49H720.92
					c-8,0-14.49,6.49-14.49,14.49v128.4C706.43,266.75,712.91,273.24,720.92,273.24L720.92,273.24z"/>
				<g>
					<path class="st1" d="M658.52,307.46c0,0-11.94,3.56-16.04-0.54c-4.1-4.1,0-14.61,0-14.61l20.29-8.3L658.52,307.46z"/>
					<path class="st2" d="M652.69,308.66c-3.64,0.46-8.03,0.45-10.2-1.73c-4.1-4.1,0-14.61,0-14.61l5.79-2.37l3.64,2.37
						C651.92,292.32,645.73,302.77,652.69,308.66z"/>
					<path class="st3" d="M727.23,229.59c20.47,7.03,42.3,11.39,42.3,11.39l0.84,10.92c-12.93,7.78-47.53,4.12-47.53,4.12
						s7.5,11.95,9.13,28l0.66,8.3c0,0,2.52,28.73-5.54,49.39h-25.19c0,0,6.32-29.29-6.2-41.81c-12.52,12.52-6.2,41.81-6.2,41.81
						h-25.19c-8.06-20.66-5.54-49.39-5.54-49.39h-16.26c0-45.45,18.45-60.46,21.65-62.73"/>
					<path class="st4" d="M709.21,231.25l6.74,16.66l-20.27-5.19l-20.27,5.19l6.74-16.66"/>
					<path class="st5" d="M727.08,341.7l-1.81,3.67l-23.38-3.67c0,0,6.31-29.28-6.21-41.81c-12.52,12.53-6.2,41.81-6.2,41.81h-25.19
						c-8.06-20.66-5.54-49.39-5.54-49.39c0-2.84,0.27-5.67,0.66-8.3h72.55l0.66,8.3C732.62,292.32,735.14,321.05,727.08,341.7
						L727.08,341.7z"/>
					<path class="st4" d="M672.76,229.59c-7.51,10.14-21.19,32.77-20.83,62.72h-9.44c0-45.45,18.46-60.46,21.65-62.72H672.76z"/>
					<path class="st6" d="M671.74,341.7l-4.6,5.93l-2.86-5.93c-8.06-20.66-5.54-49.39-5.54-49.39c0-2.84,0.27-5.67,0.66-8.3h11.96
						C668.82,293.5,665.68,313.2,671.74,341.7z"/>
					<path class="st6" d="M708.46,341.7h-6.58c0,0,6.32-29.28-6.2-41.81C708.46,299.89,715.03,321.89,708.46,341.7z"/>
					<path class="st7" d="M656.73,353.57h32.75V341.7h-20.89C662.04,341.7,656.73,347.02,656.73,353.57z"/>
					<path class="st8" d="M676.15,341.7c-6.55,0-11.86,5.31-11.86,11.86h-7.56c0-6.55,5.31-11.86,11.86-11.86H676.15z"/>
					<path class="st7" d="M734.64,353.57h-32.75V341.7h20.89C729.33,341.7,734.64,347.02,734.64,353.57L734.64,353.57z"/>
					<path class="st1" d="M788.38,246.69v4.07c0,3.15-2.55,5.7-5.7,5.7h-7.46c-3.15,0-5.7-2.55-5.7-5.7v-9.77h13.16
						C785.83,240.98,788.38,243.54,788.38,246.69z"/>
					<path class="st2" d="M779.38,256.45h-4.15c-3.15,0-5.7-2.55-5.7-5.7v-9.77h9.43C777.06,246.73,778.06,252.44,779.38,256.45z"/>
					<path class="st2" d="M748.19,193.8h0.07c6.32,0,11.43-5.12,11.43-11.43c0-6.32-5.12-11.44-11.43-11.44c-0.08,0-0.16,0-0.25,0
						h-104.7c-0.08,0-0.16,0-0.25,0c-6.32,0-11.43,5.12-11.43,11.44c0,6.31,5.12,11.43,11.43,11.43h0.07"/>
					<path class="st1" d="M745.56,141.07c-33.26-3.22-66.52-3.22-99.79,0c-2.58,20.68-3.34,41.36-2.28,62.04
						c0.77,15.05,12.82,27.04,27.88,27.75c16.2,0.76,32.4,0.76,48.6,0c15.06-0.71,27.11-12.69,27.88-27.75
						C748.9,182.43,748.14,161.75,745.56,141.07L745.56,141.07z"/>
					<path class="st2" d="M645.77,141.07c16.63-1.61,33.26-2.42,49.89-2.42c-8.42,0-16.84,0.81-25.26,2.44
						c-1.31,20.88-1.69,41.76-1.16,62.64c0.35,13.74,5.37,24.95,11.96,27.5c-3.28-0.09-6.56-0.21-9.85-0.37
						c-15.06-0.71-27.1-12.69-27.88-27.75C642.43,182.43,643.19,161.75,645.77,141.07z"/>
					<path class="st9" d="M723.37,158.27c-19.12,7.39-46.28,4.13-59.96-9.56c0,0-3.25,22.22-20.09,22.22l-7.34,2.47
						c-19.61-76.98,22.22-56.41,22.22-56.41c3.95-7.65,9.7-10.82,15.71-11.59c0.53-0.07,1.06-0.11,1.59-0.15
						c0.04,0,0.09,0,0.13-0.01c4.23-0.23,8.52,0.63,12.33,1.86c1.33,0.43,2.6,0.9,3.79,1.38c4.79,1.96,8.27,4.16,9,4.63
						c0.09,0.07,0.14,0.1,0.14,0.1c4.31-5.7,8.41-10.85,12.93-10.85c1.85,0,3.13,0.71,3.99,1.84c3.26,4.27,0.58,14.54,0.37,15.34
						l-0.01,0.04c0-0.01,0.01-0.02,0.01-0.04l0.02-0.06c0.58-1.46,7.05-17.13,18.64-17.13c0.73,0,1.39,0.07,1.97,0.2
						c8.65,1.91,1.88,17.03,1.13,18.64l-0.02,0.05c-0.02,0.04-0.03,0.07-0.04,0.08c0.37-0.47,14.85-18.85,21.28-10.42
						c0,0.01,0,0.01,0.01,0.01C767.67,119.47,742.48,150.89,723.37,158.27L723.37,158.27z"/>
					<g>
						<path class="st10" d="M761.17,110.91L761.17,110.91c-3.26-3.25-14.53,12.09-21.29,10.43l0.05-0.09
							c-0.02,0.04-0.03,0.07-0.04,0.08C740.25,120.86,754.74,102.47,761.17,110.91z"/>
						<path class="st10" d="M738.81,102.57c-4.89-1.11-9.42,8.19-11.98,14.8c-1.24,3.19-5.07,4.48-7.98,2.67l-0.7-0.43l0.01-0.01
							l0.01-0.04h0l0.02-0.06c0.58-1.46,7.05-17.13,18.64-17.13C737.57,102.37,738.23,102.43,738.81,102.57z"/>
						<path class="st10" d="M673.9,105.4c-13.99,2.47-19.27,34.53-10.5,43.31c0,0-3.25,22.22-20.09,22.22l-7.34,2.47
							c-19.61-76.98,22.22-56.41,22.22-56.41C662.14,109.34,667.89,106.17,673.9,105.4L673.9,105.4z"/>
						<path class="st10" d="M717.8,104.21c-4.92-4.92-8.19,20.29-19.26,24.33c-11.07,4.04-12.1-1.12-12.1-1.12v0
							c5.45-2.02,10.05-8.39,14.44-14.2c0,0,0,0,0,0c0.13-0.18,0.27-0.36,0.4-0.53c0.17-0.23,0.34-0.45,0.51-0.67
							c3.98-5.2,7.82-9.65,12.01-9.65C715.66,102.37,716.94,103.07,717.8,104.21z"/>
					</g>
					<g>
						<circle class="st3" cx="674.25" cy="182.66" r="12.03"/>
						<circle class="st3" cx="717.08" cy="182.66" r="12.03"/>
					</g>
				</g>
			</g>
			<g>
				<path d="M708.19,199.34c-1.89-0.9-4.15-0.09-5.05,1.8c-1.32,2.78-4.16,4.58-7.24,4.58c-3.08,0-5.92-1.8-7.24-4.58
					c-0.9-1.89-3.16-2.7-5.05-1.8c-1.89,0.9-2.69,3.16-1.8,5.05c2.57,5.41,8.09,8.91,14.08,8.91c5.99,0,11.51-3.5,14.08-8.91
					C710.89,202.49,710.08,200.23,708.19,199.34L708.19,199.34z"/>
				<path d="M862.22,127.28h-18.34c-1.66,0-3.12,1.08-3.61,2.66l-8.22,26.28l-2.31-8.59c-0.45-1.65-1.95-2.8-3.66-2.8h-9.26
					c-2.09,0-3.79,1.7-3.79,3.79s1.7,3.79,3.79,3.79h6.36l4.94,18.36c0.44,1.63,1.9,2.77,3.58,2.8c0.03,0,0.05,0,0.08,0
					c1.65,0,3.12-1.07,3.61-2.66l11.28-36.05h15.55c2.09,0,3.79-1.7,3.79-3.79S864.31,127.28,862.22,127.28L862.22,127.28z"/>
				<path d="M867.76,154.99c0.03-0.12,0.05-0.25,0.07-0.38l0.14-1.12c0.02-0.16,0.03-0.32,0.03-0.48c0-6.16-5.01-11.18-11.18-11.18
					c-5.33,0-9.94,3.79-10.97,9.02c-0.4,2.05,0.93,4.04,2.99,4.45c2.05,0.4,4.04-0.93,4.45-2.99c0.33-1.68,1.82-2.9,3.54-2.9
					c1.92,0,3.49,1.51,3.6,3.4l-0.08,0.63c-0.35,1.35-1.19,3-2.44,4.79c-4.57,6.53-7.29,10.1-8.76,12.01
					c-1.8,2.36-2.8,3.66-2.16,5.73c0.38,1.23,1.3,2.17,2.54,2.58c0.51,0.17,0.94,0.31,6.56,0.31c2.22,0,5.24-0.02,9.4-0.07
					c2.09-0.03,3.77-1.74,3.74-3.84c-0.03-2.09-1.74-3.75-3.84-3.74c-2.53,0.03-5.21,0.05-7.54,0.06c1.55-2.09,3.6-4.91,6.26-8.71
					C865.98,159.89,867.21,157.34,867.76,154.99L867.76,154.99z"/>
				<path d="M868.72,112.49H765.76c-0.28-1.29-0.81-2.44-1.57-3.45c-1.83-2.4-4.33-3.68-7.23-3.69c-3.31-0.01-6.82,1.75-9.94,4.05
					c-0.02-2.23-0.45-4.38-1.58-6.17c-1.2-1.91-3.66-4.2-8.5-4.2c-5.95,0-10.69,3.14-14.23,6.91c-0.37-1.31-0.92-2.53-1.72-3.57
					c-1.66-2.18-4.08-3.33-7-3.33c-5.43,0-9.66,4.32-13.83,9.62c-1.72-0.96-4.03-2.13-6.73-3.23c-1.34-0.55-2.7-1.04-4.05-1.48
					c-4.88-1.57-9.47-2.25-13.64-2.03c-0.01,0-0.03,0-0.05,0c-0.03,0-0.07,0-0.1,0.01c-0.6,0.04-1.21,0.09-1.83,0.17
					c-7.01,0.89-12.76,4.54-16.8,10.6c-4.81-1.58-13.94-3.38-21.01,2.36c-9.98,8.1-11.19,26.86-3.7,57.32
					c-2.43,2.69-3.91,6.25-3.91,10.16c0,7.12,4.93,13.11,11.56,14.74c0.07,2.04,0.15,4.09,0.26,6.12
					c0.61,11.95,7.46,22.13,17.38,27.4c-3.21,3.45-7.32,9.02-10.82,17.44c-0.8,1.93,0.11,4.15,2.04,4.95
					c0.48,0.2,0.97,0.29,1.45,0.29c1.48,0,2.89-0.88,3.5-2.33c4.16-10,9.15-15.24,11.64-17.4c2,0.48,4.07,0.77,6.19,0.87
					c1.79,0.08,3.58,0.16,5.37,0.22l-4.68,11.55c-0.54,1.32-0.28,2.84,0.66,3.91c0.94,1.08,2.41,1.53,3.79,1.18l15.47-3.96v32.48
					h-27.81c1.06-4.87,2.33-8.32,2.36-8.38c0.73-1.96-0.26-4.14-2.22-4.87c-1.96-0.73-4.14,0.26-4.88,2.22
					c-0.1,0.26-2.37,6.38-3.56,14.26c-0.26,1.73-0.44,3.41-0.56,5.04h-8.72c0.2-8.47,1.1-16.33,2.67-23.41
					c0.45-2.04-0.84-4.06-2.88-4.52c-2.04-0.45-4.07,0.84-4.52,2.88c-1.88,8.47-2.84,17.93-2.88,28.13
					c-1.14,3.16-4.01,12.83,1.1,17.94c2.36,2.36,5.97,3.08,9.49,3.08c1.92,0,3.82-0.22,5.47-0.49c0.49,8.74,1.83,19.05,5,28.27
					c-4.15,2.81-6.88,7.56-6.88,12.93c0,2.09,1.7,3.79,3.79,3.79h32.63c2.09,0,3.79-1.7,3.79-3.79v-11.82c0-0.27-0.03-0.54-0.09-0.8
					c-1.44-6.69-3.37-24.38,2.48-34.62c5.83,10.22,3.92,27.91,2.48,34.61c-0.06,0.26-0.09,0.53-0.09,0.81v11.82
					c0,2.09,1.7,3.79,3.79,3.79h32.63c2.09,0,3.79-1.7,3.79-3.79c0-5.37-2.73-10.12-6.88-12.93c7.16-20.85,4.96-47.26,4.86-48.39
					l-0.66-8.27c0-0.03,0-0.05-0.01-0.08c-0.23-2.28-0.57-4.48-0.99-6.57h97.1c2.09,0,3.79-1.7,3.79-3.79c0-2.09-1.7-3.79-3.79-3.79
					h-99.03c-1.1-3.55-2.34-6.62-3.44-9.07c3.24,0.19,7.38,0.35,11.87,0.34c11.63-0.03,20.62-1.23,26.82-3.55
					c1.02,1.13,2.31,2.01,3.76,2.54l-1.16,4.07c-0.57,2.01,0.59,4.11,2.6,4.68c0.35,0.1,0.7,0.15,1.04,0.15
					c1.65,0,3.17-1.08,3.64-2.75l1.59-5.56h2.97c5.22,0,9.47-4.25,9.47-9.47v-4.06c0-4.02-2.52-7.45-6.06-8.82l21.31-74.67
					c0.57-2.01-0.59-4.11-2.6-4.68c-2.01-0.57-4.11,0.59-4.68,2.6l-21.72,76.11h-8.44c-2.42-0.5-16.86-3.54-32.4-8.27
					c8.18-5.63,13.65-14.85,14.19-25.48c0.1-2.04,0.19-4.08,0.25-6.12c6.63-1.63,11.56-7.62,11.56-14.74
					c0-7.21-5.05-13.25-11.79-14.8c-0.4-8.04-1.06-16.07-2-24.05c7.5-8.04,13.41-16.94,15.44-23.62h103.57
					c5.87,0,10.65,4.78,10.65,10.65v127.93c0,5.87-4.78,10.65-10.65,10.65H847.1c-2.09,0-3.79,1.7-3.79,3.79s1.7,3.79,3.79,3.79
					h21.62c10.05,0,18.22-8.17,18.22-18.22V130.71C886.94,120.66,878.76,112.49,868.72,112.49L868.72,112.49z M742.82,150.4
					c0.63,6.26,1.08,12.53,1.37,18.82l-12.37,7.58c-2.37-5.72-8.01-9.75-14.58-9.75c-7.39,0-13.61,5.11-15.31,11.99h-12.05
					c-1.7-6.87-7.92-11.99-15.31-11.99c-6.56,0-12.2,4.03-14.58,9.75l-6.8-4.17c6.69-3.55,10.72-10.62,12.79-16.81
					c6.68,4.8,15.36,8.13,25.07,9.56c11.77,1.73,23.78,0.55,33.82-3.33C730.77,159.78,737.02,155.53,742.82,150.4z M725.45,182.83
					c0,4.52-3.68,8.2-8.2,8.2c-4.52,0-8.2-3.68-8.2-8.2c0-4.52,3.68-8.2,8.2-8.2C721.77,174.63,725.45,178.31,725.45,182.83z
					 M682.77,182.83c0,4.52-3.68,8.2-8.2,8.2s-8.2-3.68-8.2-8.2c0-4.52,3.68-8.2,8.2-8.2S682.77,178.31,682.77,182.83z
					 M635.9,182.54c0-2.85,1.58-5.34,3.9-6.64c-0.12,4.4-0.15,8.81-0.1,13.22C637.44,187.79,635.9,185.34,635.9,182.54L635.9,182.54
					z M682.05,242.3l2.92-7.21c2.39,0.05,4.77,0.08,7.16,0.1v4.53L682.05,242.3z M706.87,235.09l2.92,7.21l-10.08-2.58v-4.53
					C702.1,235.17,704.49,235.14,706.87,235.09z M645.61,303.96c-1.06-1.06-0.83-4.69,0.08-8.09h9.42
					c-0.09,2.14-0.17,5.02-0.14,8.37C650.48,305.13,646.57,304.92,645.61,303.96z M661.85,349.32c1.35-2.52,4.01-4.23,7.06-4.24
					h17.05v4.24H661.85z M705.9,349.32v-4.24h17.05c3.05,0.01,5.71,1.72,7.06,4.24H705.9z M706.59,337.5
					c0.43-3.09,0.89-7.49,0.89-12.36c0.02-12.79-2.97-22.28-8.88-28.19c-0.71-0.71-1.67-1.11-2.68-1.11c-1,0-1.97,0.4-2.68,1.11
					c-5.91,5.91-8.9,15.4-8.88,28.19c0.01,4.87,0.46,9.26,0.89,12.36l-17.97,0c-6.4-18.88-4.3-48.34-4.15-49.9h65.43l0.39,4.81
					c0.02,0.27,2.15,25.8-4.4,45.09L706.59,337.5z M784.5,250.67c0,1.04-0.85,1.89-1.89,1.89h-5.87c-0.02,0-0.04,0-0.06,0h-1.5
					c-1.04,0-1.89-0.85-1.89-1.89v-5.95h9.32c1.04,0,1.89,0.85,1.89,1.89V250.67z M765.71,244.01v5.84
					c-5.21,2.03-13.53,3.11-24.32,3.14c-9.71,0.03-17.94-0.83-18.02-0.84c-1.44-0.15-2.84,0.53-3.61,1.76
					c-0.77,1.23-0.77,2.79,0,4.02c0.06,0.1,5.76,9.35,7.96,22.1h-28.01v-32.48l15.47,3.96c0.31,0.08,0.63,0.12,0.94,0.12
					c1.08,0,2.12-0.46,2.85-1.3c0.94-1.08,1.2-2.59,0.66-3.91l-4.68-11.55c1.78-0.07,3.56-0.14,5.34-0.22
					c2.4-0.11,4.73-0.49,6.97-1.08C742.85,238.82,759.12,242.57,765.71,244.01L765.71,244.01z M744.11,203.01
					c-0.67,13.1-11.07,23.44-24.17,24.06c-15.95,0.75-32.11,0.75-48.06,0c-13.11-0.62-23.5-10.96-24.17-24.06
					c-0.43-8.31-0.55-16.72-0.37-25.08l11.62,7.12c1.08,7.65,7.67,13.56,15.62,13.56c7.39,0,13.61-5.11,15.31-11.99h12.05
					c1.7,6.88,7.92,11.99,15.31,11.99c7.95,0,14.53-5.91,15.62-13.56l11.62-7.12C744.66,186.31,744.54,194.68,744.11,203.01z
					 M755.92,182.54c0,2.81-1.53,5.26-3.8,6.58c0.05-4.4,0.01-8.81-0.1-13.22C754.34,177.19,755.92,179.68,755.92,182.54z
					 M758,117.56c-3.19,11.31-21.5,31.89-35.85,37.43c-18.7,7.23-43.69,3.34-55.7-8.67c-1.01-1.01-2.51-1.37-3.87-0.92
					c-1.36,0.45-2.35,1.63-2.56,3.05c-0.03,0.19-2.92,18.9-16.27,18.9c0,0-0.01,0-0.01,0c-0.08,0-0.16-0.01-0.23-0.01
					c-1.57,0-3.09,0.24-4.52,0.69c-3.75-16.14-7.29-39.74,1.7-47.08c6.09-4.97,16.13-0.21,16.22-0.16c1.85,0.91,4.09,0.17,5.04-1.66
					c2.94-5.69,7.11-8.8,12.75-9.52c0.43-0.05,0.86-0.09,1.29-0.12c0.06,0,0.13-0.01,0.2-0.01c3.24-0.17,6.9,0.4,10.88,1.68
					c1.16,0.38,2.34,0.81,3.5,1.28c1.9,0.78,3.58,1.6,4.94,2.32c-3.29,4.27-6.66,8.21-10.11,9.48c-1.96,0.72-2.97,2.9-2.24,4.87
					c0.72,1.96,2.9,2.97,4.87,2.24c6.2-2.29,10.91-8.53,15.45-14.56c3.42-4.53,7.67-10.17,10.51-10.17c0.71,0,0.85,0.19,0.97,0.34
					c1.45,1.9,0.76,8.21-0.29,12.03c-0.54,1.95,0.55,3.98,2.47,4.61c1.93,0.63,4-0.37,4.72-2.26c0.06-0.15,5.83-14.72,15.07-14.72
					c1.11,0,1.82,0.22,2.09,0.65c1.23,1.95-0.32,8.32-2.47,12.82c-0.84,1.74-0.23,3.84,1.42,4.86c1.65,1.02,3.8,0.64,4.98-0.89
					c3.5-4.49,10.35-11.13,13.95-11.13h0.01c0.37,0,0.75,0.06,1.25,0.71C758.48,114.05,758.63,115.33,758,117.56L758,117.56z"/>
			</g>
		</g>
	</g>
	<g>
		<g>
			<g>
				<g>
					<path class="st2" d="M630.97,553.92h0.16c13.84,0,25.05-11.22,25.05-25.05c0-13.84-11.21-25.06-25.05-25.06
						c-0.18,0-0.36,0-0.54,0.01H401.2c-0.18-0.01-0.36-0.01-0.54-0.01c-13.84,0-25.05,11.22-25.05,25.06
						c0,13.83,11.21,25.05,25.05,25.05h0.16"/>
					<path class="st1" d="M625.21,438.39c-72.88-7.07-145.75-7.07-218.62,0c-5.65,45.31-7.32,90.62-5,135.93
						c1.69,32.98,28.09,59.24,61.08,60.8c35.49,1.68,70.98,1.68,106.47,0c32.99-1.56,59.38-27.81,61.08-60.8
						C632.53,529.01,630.86,483.7,625.21,438.39z"/>
					<path class="st2" d="M406.59,438.38c36.43-3.53,72.87-5.29,109.32-5.29c-18.45,0-36.9,1.78-55.35,5.35
						c-2.87,45.75-3.71,91.5-2.53,137.23c0.77,30.1,11.77,54.65,26.21,60.25c-7.19-0.2-14.38-0.47-21.57-0.8
						c-32.98-1.55-59.38-27.81-61.08-60.79C399.27,529.01,400.93,483.7,406.59,438.38z"/>
					<path class="st9" d="M576.59,476.07c-41.89,16.18-101.39,9.05-131.37-20.94c0,0-7.12,48.69-44.01,48.69l-16.09,5.41
						c-42.97-168.66,48.68-123.59,48.68-123.59c8.65-16.77,21.26-23.71,34.42-25.38c1.16-0.14,2.32-0.25,3.49-0.32
						c0.09,0,0.19-0.01,0.28-0.01c9.27-0.49,18.66,1.39,27.01,4.07c2.91,0.94,5.69,1.97,8.29,3.03c10.48,4.29,18.12,9.1,19.72,10.13
						c0.21,0.14,0.31,0.21,0.31,0.21c9.43-12.48,18.43-23.77,28.32-23.77c4.06,0,6.86,1.55,8.75,4.04
						c7.14,9.35,1.27,31.85,0.8,33.61l-0.02,0.08c0.01-0.01,0.01-0.04,0.03-0.08l0.05-0.13c1.27-3.19,15.44-37.52,40.85-37.52
						c1.6,0,3.04,0.15,4.32,0.44c18.94,4.19,4.12,37.32,2.48,40.83l-0.04,0.1c-0.04,0.09-0.07,0.15-0.09,0.18
						c0.81-1.03,32.53-41.31,46.63-22.83c0.01,0.01,0.01,0.01,0.01,0.02C673.64,391.07,618.46,459.9,576.59,476.07L576.59,476.07z"
						/>
					<g>
						<path class="st10" d="M659.41,372.31L659.41,372.31c-7.13-7.12-31.82,26.49-46.65,22.85l0.11-0.2
							c-0.04,0.09-0.07,0.15-0.09,0.18C613.58,394.11,645.31,353.83,659.41,372.31L659.41,372.31z"/>
						<path class="st10" d="M610.42,354.03c-10.71-2.43-20.63,17.95-26.24,32.42c-2.71,7-11.11,9.81-17.49,5.85l-1.53-0.95
							l0.01-0.03l0.02-0.08h0.01l0.05-0.13c1.27-3.19,15.44-37.52,40.85-37.52C607.7,353.59,609.14,353.74,610.42,354.03z"/>
						<path class="st10" d="M468.22,360.25c-30.64,5.4-42.22,75.66-23,94.88c0,0-7.12,48.69-44.01,48.69l-16.09,5.41
							c-42.97-168.66,48.68-123.59,48.68-123.59C442.45,368.87,455.05,361.92,468.22,360.25L468.22,360.25z"/>
						<path class="st10" d="M564.39,357.63c-10.77-10.77-17.95,44.46-42.19,53.31c-24.25,8.85-26.52-2.46-26.52-2.46v-0.01
							c11.94-4.42,22.01-18.37,31.64-31.11c0.01,0.01,0.01,0.01,0.01,0.01c0.29-0.39,0.59-0.78,0.88-1.17
							c0.36-0.49,0.74-0.99,1.12-1.47c8.72-11.38,17.13-21.13,26.32-21.13C559.7,353.59,562.51,355.15,564.39,357.63z"/>
						<path class="st10" d="M472.01,359.92c-0.1,0-0.2,0-0.3,0.01c0.09,0,0.19-0.01,0.28-0.01L472.01,359.92z"/>
					</g>
				</g>
				<path class="st11" d="M699.04,616.4v162.76c0,10.42-7.27,19.43-17.45,21.63l-144.57,31.33h-18.66V624.07h18.66l135.19-29.3
					C686.01,591.78,699.04,602.29,699.04,616.4L699.04,616.4z"/>
				<path class="st12" d="M518.37,624.07v208.05h-20.05l-144.57-31.33c-10.18-2.2-17.45-11.22-17.45-21.63V616.4
					c0-14.11,13.04-24.62,26.82-21.62l135.19,29.3H518.37z"/>
				<path class="st13" d="M498.33,832.12V624.07h38.7v208.05"/>
				<g>
					<g>
						<path class="st1" d="M332.34,695.03h-7.57c-11.18,0-20.24-9.06-20.24-20.24v-18.17c0-11.18,9.06-20.24,20.24-20.24h7.57
							c11.18,0,20.24,9.06,20.24,20.24v18.17C352.58,685.97,343.52,695.03,332.34,695.03z"/>
						<path class="st2" d="M336.23,694.65c-1.25,0.26-2.56,0.39-3.89,0.39h-7.58c-11.18,0-20.24-9.07-20.24-20.25v-18.17
							c0-11.19,9.06-20.25,20.24-20.25h7.58c1.33,0,2.64,0.13,3.89,0.39c-9.31,1.81-16.34,10.01-16.34,19.86v18.17
							C319.89,684.64,326.92,692.84,336.23,694.65z"/>
					</g>
					<g>
						<path class="st1" d="M710.59,695.03h-7.57c-11.18,0-20.24-9.06-20.24-20.24v-18.17c0-11.18,9.06-20.24,20.24-20.24h7.57
							c11.18,0,20.24,9.06,20.24,20.24v18.17C730.83,685.97,721.77,695.03,710.59,695.03z"/>
						<path class="st2" d="M714.48,694.65c-1.25,0.26-2.56,0.39-3.89,0.39h-7.58c-11.18,0-20.24-9.07-20.24-20.25v-18.17
							c0-11.19,9.06-20.25,20.24-20.25h7.58c1.33,0,2.64,0.13,3.89,0.39c-9.31,1.81-16.34,10.01-16.34,19.86v18.17
							C698.14,684.64,705.17,692.84,714.48,694.65z"/>
					</g>
				</g>
			</g>
			<g>
				<path d="M545.86,579.77c1.71-3.6,0.18-7.91-3.43-9.62c-3.6-1.71-7.91-0.18-9.62,3.43c-3.08,6.5-9.72,10.7-16.92,10.7
					c-7.19,0-13.83-4.2-16.91-10.7c-1.71-3.6-6.02-5.14-9.62-3.43c-3.6,1.71-5.14,6.02-3.43,9.62
					c5.46,11.51,17.22,18.95,29.96,18.95C528.63,598.72,540.39,591.28,545.86,579.77L545.86,579.77z"/>
				<ellipse cx="462.55" cy="534.51" rx="10.43" ry="15.53"/>
				<ellipse cx="569.24" cy="534.51" rx="10.43" ry="15.53"/>
				<path d="M672.86,653.02c-0.84-3.9-4.69-6.37-8.59-5.53l-79.96,17.33c-3.9,0.84-6.37,4.69-5.53,8.59
					c0.73,3.38,3.73,5.69,7.05,5.69c0.51,0,1.02-0.05,1.54-0.17l79.96-17.33C671.23,660.76,673.71,656.92,672.86,653.02
					L672.86,653.02z"/>
				<path d="M664.28,674.33l-79.96,17.33c-3.9,0.84-6.37,4.69-5.53,8.59c0.73,3.38,3.73,5.69,7.05,5.69c0.51,0,1.02-0.05,1.54-0.17
					l79.96-17.33c3.9-0.84,6.37-4.69,5.53-8.59C672.02,675.96,668.18,673.48,664.28,674.33z"/>
				<path d="M710.59,629.15h-4.32V616.4c0-8.92-3.99-17.25-10.93-22.85c-6.95-5.6-15.93-7.73-24.64-5.83l-37.64,8.16
					c2.51-6.77,4-13.91,4.37-21.18c0.24-4.76,0.43-9.53,0.59-14.3c14.5-3.16,25.39-16.09,25.39-31.53
					c0-15.61-11.14-28.67-25.88-31.64c-0.87-18.09-2.37-36.16-4.49-54.13c16.9-18.03,30.18-38.11,34.35-52.88
					c2.65-9.37,1.89-16.87-2.24-22.28c-3.81-5-9.01-7.65-15.03-7.68c-6.89-0.03-14.43,3.28-23.01,10.1
					c0.32-6.19-0.76-11.3-3.26-15.27c-2.5-3.97-7.6-8.71-17.76-8.71c-13.5,0-24.11,7.58-31.86,16.33c-0.76-3.49-2.05-6.75-4.09-9.44
					c-3.43-4.51-8.45-6.89-14.51-6.89c-11.7,0-20.93,9.71-30.12,21.47c-3.85-2.17-9.19-4.93-15.51-7.52
					c-2.87-1.17-5.82-2.25-8.81-3.22c-10.61-3.4-20.57-4.89-29.59-4.41c-0.06,0-0.15,0.01-0.24,0.02c-0.02,0-0.05,0-0.07,0
					c-1.33,0.08-2.63,0.19-3.98,0.36c-15.56,1.98-27.85,9.86-36.61,23.46c-15.67-5.49-40.96-7.47-54.73,14.87
					c-2.09,3.39-1.04,7.84,2.35,9.94c1.18,0.73,2.49,1.08,3.78,1.08c2.42,0,4.79-1.22,6.15-3.43c12.88-20.87,41.16-7.46,42.34-6.88
					c3.53,1.74,7.8,0.33,9.6-3.17c6.64-12.86,16.1-19.91,28.91-21.54c0.98-0.12,1.94-0.21,2.92-0.27c0.15-0.01,0.3-0.02,0.46-0.03
					c7.24-0.36,15.41,0.9,24.26,3.73c2.63,0.86,5.25,1.82,7.79,2.85c4.75,1.95,8.91,4.02,12.13,5.77
					c-7.58,9.91-15.39,19.24-23.51,22.25c-3.74,1.38-5.65,5.53-4.27,9.28c1.38,3.74,5.54,5.65,9.28,4.27
					c13.34-4.93,23.58-18.5,33.48-31.64c8.06-10.69,17.2-22.81,23.99-22.81c1.94,0,2.57,0.62,3.01,1.19
					c3.56,4.67,1.84,19.12-0.45,27.41c-1.03,3.72,1.04,7.59,4.71,8.79c3.67,1.2,7.63-0.7,9-4.31c0.13-0.33,13.1-33.09,34.18-33.09
					c4.3,0,5.23,1.47,5.53,1.95c3.35,5.31-1.23,20.61-5.37,29.26c-1.6,3.33-0.43,7.32,2.7,9.27c3.14,1.94,7.24,1.21,9.5-1.7
					c0.05-0.07,5.14-6.58,12.02-13.05c11.35-10.68,17.43-11.85,19.53-11.85h0.03c1.26,0.01,2.36,0.35,3.62,2
					c1.16,1.52,1.09,5.1-0.18,9.6c-7.09,25.1-47.69,70.76-79.5,83.05c-41.5,16.04-96.97,7.37-123.66-19.31
					c-1.93-1.93-4.79-2.61-7.38-1.75c-2.59,0.86-4.48,3.11-4.87,5.81c-0.02,0.11-1.67,11.08-7.42,22.03
					c-7.14,13.59-17.05,20.48-29.45,20.48c-0.01,0-0.02,0-0.03,0c-0.17,0-0.34-0.01-0.51-0.01c-3.76,0-7.38,0.65-10.74,1.85
					c-7.41-31.32-10.29-56.63-8.54-75.29c0.37-3.97-2.54-7.49-6.51-7.86c-3.97-0.37-7.49,2.54-7.86,6.51
					c-1.99,21.24,1.41,49.85,10.1,85.06c-5.4,5.77-8.71,13.52-8.71,22.02c0,15.44,10.9,28.37,25.4,31.53
					c0.16,4.78,0.35,9.54,0.59,14.29c0.35,6.96,1.74,13.82,4.06,20.34l-33.77-7.32c-8.72-1.89-17.7,0.23-24.65,5.83
					c-6.95,5.6-10.93,13.93-10.93,22.85v12.76h-4.32c-15.14,0-27.47,12.32-27.47,27.47v18.17c0,15.14,12.32,27.47,27.47,27.47h4.32
					v76.89c0,13.72,9.73,25.79,23.14,28.69l144.57,31.33c0.01,0,0.02,0,0.03,0c0.2,0.04,0.4,0.07,0.61,0.1
					c0.05,0.01,0.09,0.02,0.14,0.02c0.24,0.03,0.48,0.04,0.73,0.04c0.01,0,0.02,0,0.03,0h38.71c0.01,0,0.02,0,0.03,0
					c0.25,0,0.49-0.01,0.73-0.04c0.05,0,0.09-0.02,0.14-0.02c0.21-0.03,0.41-0.06,0.61-0.1c0.01,0,0.02,0,0.03,0l144.57-31.33
					c13.41-2.9,23.14-14.97,23.14-28.69v-9.85c0-3.99-3.23-7.22-7.22-7.22c-3.99,0-7.22,3.23-7.22,7.22v9.85
					c0,6.97-4.94,13.1-11.75,14.58l-135.82,29.43V629.89l129.5-28.07c4.43-0.96,8.99,0.12,12.52,2.96c3.53,2.85,5.55,7.07,5.55,11.6
					v15.15c-9.58,4.29-16.27,13.91-16.27,25.07v18.17c0,11.16,6.69,20.78,16.27,25.07v40.56c0,3.99,3.23,7.22,7.22,7.22
					c3.99,0,7.22-3.23,7.22-7.22v-38.16h4.32c15.14,0,27.47-12.32,27.47-27.47v-18.17C738.05,641.47,725.73,629.15,710.59,629.15
					L710.59,629.15z M648.96,528.87c0,7.26-4.37,13.51-10.6,16.29c0.14-10.89,0.06-21.79-0.26-32.7
					C644.48,515.17,648.96,521.5,648.96,528.87z M382.83,528.87c0-7.36,4.48-13.68,10.84-16.41c-0.31,10.88-0.38,21.8-0.24,32.69
					C387.19,542.37,382.83,536.13,382.83,528.87z M408.8,573.95c-1.08-20.98-1.28-42.29-0.61-63.43
					c14.76-2.24,26.85-11.69,35.25-27.69c2.69-5.12,4.63-10.22,5.99-14.57c14.71,10.97,34.13,18.58,55.96,21.79
					c25.7,3.78,51.91,1.21,73.8-7.25c13.41-5.18,27.65-15.03,40.74-26.84c4.04,39.22,5.08,78.84,3.07,117.98
					c-0.47,9.1-3.12,17.94-7.67,25.77l-79.07,17.14H499.1l-83.14-18.02C411.72,591.24,409.25,582.7,408.8,573.95L408.8,573.95z
					 M505.55,631.29h24.26v193.6h-24.26V631.29z M311.74,674.79v-18.17c0-7.18,5.84-13.02,13.02-13.02h7.57
					c7.18,0,13.02,5.84,13.02,13.02v18.17c0,7.18-5.84,13.02-13.02,13.02h-7.57C317.59,687.81,311.74,681.97,311.74,674.79z
					 M343.53,779.15v-79.29c9.58-4.29,16.27-13.91,16.27-25.07v-18.17c0-11.16-6.69-20.78-16.27-25.07V616.4
					c0-4.53,2.02-8.76,5.55-11.6c3.53-2.85,8.09-3.93,12.52-2.96l129.5,28.07v193.27l-135.82-29.43
					C348.47,792.25,343.53,786.12,343.53,779.15L343.53,779.15z M723.61,674.79c0,7.18-5.84,13.02-13.02,13.02h-7.57
					c-7.18,0-13.02-5.84-13.02-13.02v-18.17c0-7.18,5.84-13.02,13.02-13.02h7.57c7.18,0,13.02,5.84,13.02,13.02V674.79z"/>
			</g>
		</g>
	</g>
	<g>
		<g>
			<g>
				<path class="st14" d="M249.02,241.18H154.3c-6.54,0-11.84,5.1-11.84,11.38v91.05c0,6.29,5.3,11.38,11.84,11.38h94.72
					c6.54,0,11.84-5.1,11.84-11.38v-91.05C260.86,246.27,255.56,241.18,249.02,241.18L249.02,241.18z"/>
				<path class="st15" d="M367.42,241.18H272.7c-6.54,0-11.84,5.1-11.84,11.38v91.05c0,6.29,5.3,11.38,11.84,11.38h94.72
					c6.54,0,11.84-5.1,11.84-11.38v-91.05C379.26,246.27,373.96,241.18,367.42,241.18L367.42,241.18z"/>
				<path class="st16" d="M308.22,127.36H213.5c-6.54,0-11.84,5.1-11.84,11.38v91.05c0,6.29,5.3,11.38,11.84,11.38h94.72
					c6.54,0,11.84-5.1,11.84-11.38v-91.05C320.06,132.46,314.76,127.36,308.22,127.36z"/>
				<path class="st17" d="M319.33,229.79h-86.1c-10.88,0-19.73-8.51-19.73-18.97v-82.77v-0.7c-6.54,0-11.84,5.1-11.84,11.38v91.05
					c0,6.29,5.3,11.38,11.84,11.38h94.72c6.54,0,11.84-5.1,11.84-11.38H319.33z"/>
				<path class="st18" d="M260.13,343.61h-86.1c-10.88,0-19.73-8.51-19.73-18.97v-82.77v-0.7c-6.54,0-11.84,5.1-11.84,11.38v91.05
					c0,6.29,5.3,11.38,11.84,11.38h94.72c6.54,0,11.84-5.1,11.84-11.38H260.13z"/>
				<path class="st19" d="M378.53,343.61h-86.1c-10.88,0-19.73-8.51-19.73-18.97v-82.77v-0.7c-6.54,0-11.84,5.1-11.84,11.38v91.05
					c0,6.29,5.3,11.38,11.84,11.38h94.72c6.54,0,11.84-5.1,11.84-11.38H378.53z"/>
			</g>
			<g>
				<path d="M367.42,237.74h-46.2c1.53-2.3,2.41-5.02,2.41-7.95v-91.05c0-8.17-6.91-14.82-15.41-14.82H213.5
					c-8.5,0-15.41,6.65-15.41,14.82v91.05c0,2.92,0.89,5.65,2.41,7.95h-46.2c-8.5,0-15.41,6.65-15.41,14.82v91.05
					c0,8.17,6.91,14.82,15.41,14.82h94.72c4.75,0,9.01-2.08,11.84-5.34c2.83,3.26,7.09,5.34,11.84,5.34h94.72
					c8.5,0,15.41-6.65,15.41-14.82v-91.05C382.83,244.39,375.92,237.74,367.42,237.74L367.42,237.74z M249.02,351.55H154.3
					c-4.56,0-8.27-3.56-8.27-7.95v-91.05c0-4.38,3.71-7.95,8.27-7.95h94.72c4.56,0,8.27,3.56,8.27,7.95v91.05
					C257.29,347.99,253.58,351.55,249.02,351.55L249.02,351.55z M375.68,343.61c0,4.38-3.71,7.95-8.27,7.95H272.7
					c-4.56,0-8.27-3.56-8.27-7.95v-91.05c0-4.38,3.71-7.95,8.27-7.95h11.84c1.97,0,3.57-1.54,3.57-3.44c0-1.9-1.6-3.44-3.57-3.44
					H213.5c-4.56,0-8.27-3.56-8.27-7.95v-91.05c0-4.38,3.71-7.95,8.27-7.95h94.72c4.56,0,8.27,3.56,8.27,7.95v91.05
					c0,4.38-3.71,7.95-8.27,7.95h-7.89c-1.97,0-3.57,1.54-3.57,3.44c0,1.9,1.6,3.44,3.57,3.44h67.09c4.56,0,8.27,3.56,8.27,7.95
					L375.68,343.61z"/>
				<path d="M265.07,156.26c-0.01-0.03-0.03-0.06-0.04-0.09c-0.75-1.76-2.51-2.89-4.49-2.89c0,0,0,0-0.01,0
					c-1.98,0-3.74,1.14-4.48,2.9c-0.01,0.03-0.02,0.05-0.03,0.08l-21.16,53.4c-0.7,1.77,0.22,3.76,2.07,4.43
					c1.85,0.68,3.91-0.21,4.61-1.99l4.39-11.09H275l4.35,11.08c0.54,1.38,1.9,2.22,3.34,2.22c0.42,0,0.85-0.07,1.26-0.22
					c1.85-0.67,2.78-2.65,2.08-4.43L265.07,156.26z M248.66,194.15l11.88-29.97l11.77,29.97H248.66z"/>
				<path d="M216.01,296.1c2.69-2.71,4.34-6.37,4.34-10.4c0-8.31-7.03-15.07-15.68-15.07H189.4c-1.97,0-3.57,1.54-3.57,3.44v50.57
					c0,0.91,0.38,1.79,1.05,2.43c0.67,0.64,1.58,1,2.52,1h0.02c0.14,0,14.11-0.06,17.93-0.06c9.78,0,17.73-7.65,17.73-17.05
					C225.08,304.59,221.42,299.03,216.01,296.1L216.01,296.1z M204.68,277.5c4.7,0,8.53,3.68,8.53,8.2s-3.83,8.2-8.53,8.2
					c-1.11,0-11.71,0.01-11.71,0.01v-16.42L204.68,277.5L204.68,277.5z M207.35,321.14c-2.61,0-9.93,0.03-14.38,0.05v-20.38
					c1.82-0.01,14.38-0.02,14.38-0.02c5.84,0,10.59,4.57,10.59,10.18C217.93,316.58,213.18,321.14,207.35,321.14z"/>
				<path d="M340.75,314.87c-1.51-1.22-3.77-1.03-5.03,0.42c-0.55,0.63-1.15,1.22-1.77,1.76c-3.22,2.75-7.27,4.15-12.06,4.15
					c-12.53,0-22.73-9.8-22.73-21.85s10.2-21.85,22.73-21.85c4.56,0,8.95,1.29,12.71,3.73c1.64,1.06,3.86,0.65,4.96-0.92
					c1.1-1.57,0.67-3.71-0.96-4.77c-4.94-3.21-10.72-4.91-16.71-4.91c-16.47,0-29.88,12.88-29.88,28.72
					c0,15.84,13.4,28.72,29.88,28.72c6.5,0,12.31-2.04,16.81-5.89c0.88-0.76,1.72-1.59,2.5-2.48
					C342.46,318.25,342.26,316.09,340.75,314.87L340.75,314.87z"/>
			</g>
		</g>
	</g>
</g>
</svg>
