<svg enable-background="new 0 0 256 256" height="512" viewBox="0 0 256 256" width="512" xmlns="http://www.w3.org/2000/svg"><path d="m172.418 231.049s19.344-24.388 7.988-77.042c-2.019-9.36-5.532-18.314-10.307-26.581-7.517 9.455-23.542 15.986-42.099 15.986s-34.582-6.53-42.099-15.986c-4.775 8.267-8.288 17.221-10.307 26.581-11.357 52.654 7.987 77.042 7.987 77.042s-22.064 10.98-17.419 18.666 28.451 1.647 35.418-.549c6.968-2.196 12.193 8.235 19.161 1.647 4.612-2.093 9.904-2.093 14.516 0 6.968 6.588 12.193-3.843 19.161-1.647s30.773 8.235 35.418.549c4.646-7.686-17.418-18.666-17.418-18.666z" fill="#7d3d1a"/><path d="m66.163 249.715c-3.399-5.624 7.495-13.006 13.589-16.565-2.214-2.67-4.829-4.202-4.829-4.202-19.765-8.784-23.059-21.961-23.059-21.961s.828-10.49-7.686-14.274c-9.882-4.392-17.568 5.49-23.058 18.666-3.333 8 .619 12.762 4.239 15.268 3.151 2.182 6.016 4.754 8.361 7.786 12.048 15.573 27.646 20.836 37.93 18.55-2.504-.547-4.462-1.573-5.487-3.268z" fill="#ffc097"/><path d="m79.752 233.15c2.235-1.305 3.83-2.101 3.83-2.101s-15.251-19.271-10.693-60.492c-11.876-2.721-24.746.054-28.303 22.372 8.056 3.94 7.278 14.059 7.278 14.059s3.294 13.176 23.059 21.961c-.001-.001 2.615 1.531 4.829 4.201z" fill="#7d3d1a"/><path d="m209.317 25.651c-9.174-7.581-23.83-4.99-32.734 5.787-.769.93-1.444 1.9-2.077 2.884 9.047 9.323 14.598 21.425 14.839 34.689 7.25.067 14.955-3.457 20.462-10.122 8.903-10.776 8.684-25.658-.49-33.238z" fill="#ffc097"/><path d="m81.998 35.122c-.757-1.265-1.604-2.503-2.581-3.685-8.904-10.776-23.56-13.367-32.734-5.787-9.174 7.581-9.394 22.462-.489 33.238 5.833 7.06 14.13 10.579 21.742 10.054.252-12.857 5.484-24.626 14.062-33.82z" fill="#ffc097"/><path d="m211.414 192.928c-3.557-22.318-16.427-25.093-28.303-22.372 4.558 41.221-10.693 60.492-10.693 60.492s1.595.796 3.83 2.101c2.214-2.67 4.829-4.202 4.829-4.202 19.764-8.784 23.058-21.961 23.058-21.961s-.777-10.118 7.279-14.058z" fill="#7d3d1a"/><path d="m234.881 211.38c-5.49-13.176-13.176-23.059-23.058-18.666-8.514 3.784-7.686 14.274-7.686 14.274s-3.294 13.176-23.058 21.961c0 0-2.616 1.532-4.829 4.202 6.094 3.56 16.987 10.942 13.589 16.565-1.025 1.695-2.983 2.721-5.486 3.27 10.283 2.286 25.882-2.977 37.93-18.55 2.346-3.032 5.21-5.604 8.361-7.786 3.618-2.508 7.57-7.27 4.237-15.27z" fill="#ffc097"/><path d="m174.659 81.414c0-18.709-11.16-33.875-24.927-33.875-9.331 0-17.459 6.971-21.731 17.286-4.273-10.315-12.401-17.286-21.731-17.286-13.767 0-24.927 15.167-24.927 33.875 0 7.873 1.982 15.112 5.297 20.864-3.377 3.892-5.297 8.315-5.297 13.011 0 15.532 20.89 28.123 46.659 28.123s46.659-12.591 46.659-28.123c0-4.696-1.92-9.12-5.297-13.011 3.313-5.752 5.295-12.991 5.295-20.864z" fill="#ffc097"/><path d="m189.37 69.909c0-25.448-19.564-46.794-45.967-52.695-.392-.088-.617-.495-.477-.871l2.653-7.089c.18-.482-.243-.985-.749-.892-5.631 1.029-10.28 2.726-14.062 4.604-.497.247-1.06-.175-.951-.72l1.789-8.947c.101-.504-.394-.932-.878-.76-10.522 3.736-17.024 9.38-20.654 13.507-1.587 1.804-3.565 3.209-5.801 4.086-21.409 8.398-36.364 27.525-36.364 49.777 0 7.38 1.645 14.416 4.626 20.831 1.559 3.355 2.041 7.081 1.824 10.774-.032.541-.048 1.085-.048 1.632 0 9.035 4.244 17.345 11.347 23.957-2.764-3.592-4.316-7.592-4.316-11.813 0-4.696 1.92-9.12 5.297-13.011-3.315-5.752-5.297-12.991-5.297-20.864 0-18.709 11.16-33.875 24.927-33.875 9.331 0 17.459 6.971 21.731 17.286 4.273-10.315 12.401-17.286 21.731-17.286 13.767 0 24.927 15.167 24.927 33.875 0 7.873-1.982 15.112-5.297 20.864 3.377 3.892 5.297 8.315 5.297 13.011 0 4.22-1.553 8.22-4.316 11.813 7.103-6.611 11.347-14.922 11.347-23.957 0-.316-.005-.631-.016-.945-.123-3.498.805-6.928 2.378-10.055 3.413-6.788 5.319-14.312 5.319-22.237z" fill="#7d3d1a"/><g fill="#ffc097"><path d="m172.671 230.708c-3.702 1.399-9.8 2.97-13.129-.178-4.997-4.725-8.744-2.362-8.744-2.362l-.351.199c-13.908 7.674-14.875 18.909-14.753 22.83 6.751 5.761 11.903-4.18 18.724-2.03 6.968 2.196 30.773 8.235 35.418.549s-17.419-18.666-17.419-18.666.094-.121.254-.342z"/><path d="m83.329 230.708c3.702 1.399 9.8 2.97 13.129-.178 4.997-4.725 8.744-2.362 8.744-2.362l.351.199c13.908 7.674 14.875 18.909 14.753 22.83-6.751 5.761-11.903-4.18-18.724-2.03-6.968 2.196-30.773 8.235-35.418.549s17.419-18.666 17.419-18.666-.094-.121-.254-.342z"/><path d="m131.304 165.542h-6.608c-13.688 0-24.328 12.427-22.087 26.157.043.262.087.514.134.756 3.972 20.62 3.596 31.302 2.963 35.999 13.759 7.672 14.722 18.836 14.6 22.742l.023-.01c.137-.118.275-.242.413-.373 4.612-2.093 9.904-2.093 14.516 0 .147.139.291.252.436.376-.121-3.912.849-15.068 14.6-22.736-.634-4.698-1.009-15.379 2.963-35.999.047-.242.091-.495.134-.756 2.241-13.729-8.399-26.156-22.087-26.156z"/></g><path d="m217.91 155.28c-3.402 7.809-10.44 12.938-17.986 16.814 3.768 2.143 7.011 5.895 9.241 11.928 6.152-3.378 11.848-7.479 16.386-12.973 7.568-9.162 11.698-22.288 7.484-33.842-4.619-12.665-15.464-17.038-19.166-24.52-5.834-11.793 9.956-19.237 18.672-21.79 9.244-2.709 5.31-17.188-3.988-14.464-29.776 8.725-40.84 32.762-19.852 53.457 6.014 5.928 15.124 11.813 9.209 25.39z" fill="#7d3d1a"/><path d="m201.255 35.407c-6.307-5.211-16.328-3.505-22.545 3.765 5.841 7.601 9.566 16.597 10.442 26.316 4.493-.477 9.064-2.858 12.444-6.948 6.197-7.501 6.044-17.857-.341-23.133z" fill="#f49667"/><path d="m77.95 39.995c-.143-.186-.273-.378-.424-.561-6.197-7.5-16.396-9.303-22.781-4.027s-6.537 15.632-.341 23.132c3.7 4.478 8.825 6.906 13.715 7.028.832-9.401 4.33-18.128 9.831-25.572z" fill="#f49667"/><path d="m178.551 255.982c-10.37 0-22.805-3.776-24.884-4.432-2.007-.634-4.043.425-6.396 1.649-3.497 1.82-8.259 4.298-13.396-.264-3.754-1.591-7.994-1.591-11.748 0-5.137 4.562-9.9 2.084-13.396.264-2.354-1.225-4.39-2.283-6.397-1.649-3.266 1.029-32.086 9.759-38.309-.542-1.037-1.716-1.274-3.696-.685-5.727 1.825-6.281 11.76-12.449 16.615-15.14-4.609-7.516-16.392-32.205-6.803-76.661 2.049-9.505 5.61-18.691 10.585-27.305.414-.716 1.155-1.182 1.98-1.243.819-.061 1.626.29 2.142.938 7.264 9.137 23.021 15.042 40.142 15.042s32.878-5.904 40.142-15.042c.516-.648 1.322-1 2.142-.938.825.061 1.566.526 1.98 1.243 4.974 8.612 8.535 17.799 10.586 27.304 9.589 44.457-2.194 69.145-6.804 76.661 4.855 2.692 14.79 8.859 16.615 15.14.59 2.03.353 4.01-.685 5.727-2.262 3.744-7.509 4.974-13.426 4.975zm-26.123-9.624c.883 0 1.798.126 2.742.424 11.355 3.579 29.546 6.575 32.527 1.64.211-.348.419-.861.162-1.746-1.274-4.386-10.831-10.54-16.556-13.389-.675-.336-1.162-.958-1.326-1.695-.163-.733.012-1.501.478-2.091.186-.237 18.438-24.286 7.508-74.967-1.703-7.892-4.509-15.556-8.354-22.829-8.911 8.835-24.436 14.207-41.608 14.207s-32.697-5.372-41.608-14.207c-3.846 7.273-6.651 14.937-8.354 22.829-10.979 50.91 7.316 74.727 7.503 74.961.468.591.645 1.361.481 2.097s-.651 1.359-1.326 1.695c-5.727 2.854-15.286 9.013-16.556 13.391-.257.884-.048 1.396.162 1.745 2.982 4.934 21.171 1.939 32.526-1.64 3.989-1.256 7.437.541 10.209 1.983 3.68 1.916 5.417 2.661 7.986.232.201-.19.433-.346.685-.46 5.27-2.392 11.312-2.392 16.582 0 .252.114.483.27.685.46 2.568 2.428 4.306 1.684 7.986-.232 2.115-1.102 4.625-2.408 7.466-2.408z"/><path d="m178.551 255.982c-10.37 0-22.805-3.776-24.884-4.432-2.007-.634-4.043.425-6.396 1.649-3.497 1.82-8.259 4.298-13.396-.264-3.754-1.591-7.994-1.591-11.748 0-5.137 4.562-9.9 2.084-13.396.264-2.354-1.225-4.39-2.283-6.397-1.649-3.266 1.029-32.086 9.759-38.309-.542-1.037-1.716-1.274-3.696-.685-5.727 1.825-6.281 11.76-12.449 16.615-15.14-4.609-7.516-16.392-32.205-6.803-76.661 2.049-9.505 5.61-18.691 10.585-27.305.414-.716 1.155-1.182 1.98-1.243.819-.061 1.626.29 2.142.938 7.264 9.137 23.021 15.042 40.142 15.042s32.878-5.904 40.142-15.042c.516-.648 1.322-1 2.142-.938.825.061 1.566.526 1.98 1.243 4.974 8.612 8.535 17.799 10.586 27.304 9.589 44.457-2.194 69.145-6.804 76.661 4.855 2.692 14.79 8.859 16.615 15.14.59 2.03.353 4.01-.685 5.727-2.262 3.744-7.509 4.974-13.426 4.975zm-26.123-9.624c.883 0 1.798.126 2.742.424 11.355 3.579 29.546 6.575 32.527 1.64.211-.348.419-.861.162-1.746-1.274-4.386-10.831-10.54-16.556-13.389-.675-.336-1.162-.958-1.326-1.695-.163-.733.012-1.501.478-2.091.186-.237 18.438-24.286 7.508-74.967-1.703-7.892-4.509-15.556-8.354-22.829-8.911 8.835-24.436 14.207-41.608 14.207s-32.697-5.372-41.608-14.207c-3.846 7.273-6.651 14.937-8.354 22.829-10.979 50.91 7.316 74.727 7.503 74.961.468.591.645 1.361.481 2.097s-.651 1.359-1.326 1.695c-5.727 2.854-15.286 9.013-16.556 13.391-.257.884-.048 1.396.162 1.745 2.982 4.934 21.171 1.939 32.526-1.64 3.989-1.256 7.437.541 10.209 1.983 3.68 1.916 5.417 2.661 7.986.232.201-.19.433-.346.685-.46 5.27-2.392 11.312-2.392 16.582 0 .252.114.483.27.685.46 2.568 2.428 4.306 1.684 7.986-.232 2.115-1.102 4.625-2.408 7.466-2.408z"/><path d="m66.842 255.985c-10.473 0-24.117-5.825-35.101-20.021-2.051-2.652-4.678-5.094-7.807-7.26-3.693-2.558-9.269-8.335-5.123-18.286 4.641-11.138 9.988-17.977 15.896-20.329 3.402-1.354 6.932-1.241 10.486.339 8.979 3.991 9.254 13.892 9.187 16.258.63 1.96 4.713 12.49 21.558 19.977.085.038.167.08.247.127.123.071 3.025 1.788 5.492 4.763.469.565.665 1.308.537 2.031s-.567 1.354-1.201 1.724c-7.341 4.288-12.165 8.58-12.904 11.483-.162.637-.102 1.14.194 1.63.587.971 1.893 1.685 3.881 2.121 1.146.251 1.963 1.265 1.965 2.438s-.812 2.19-1.958 2.444c-1.656.369-3.451.561-5.349.561zm-27.354-61.828c-.99 0-1.964.193-2.932.578-4.544 1.809-9.084 7.897-13.13 17.606-2.16 5.185-1.062 9.192 3.354 12.252 3.55 2.458 6.55 5.254 8.915 8.312 8.937 11.551 19.586 16.977 28.231 17.94-.909-1.597-1.14-3.421-.664-5.287 1.006-3.951 5.202-8.284 12.488-12.902-.939-.803-1.727-1.32-1.998-1.491-20.508-9.174-24.17-22.986-24.316-23.571-.065-.262-.088-.534-.066-.803.024-.349.549-8.79-6.209-11.793-1.262-.561-2.479-.841-3.673-.841z"/><path d="m79.753 235.65c-.724 0-1.436-.314-1.926-.904-1.656-1.998-3.611-3.29-4.073-3.581-20.508-9.174-24.17-22.986-24.316-23.571-.064-.261-.088-.53-.066-.798.023-.337.515-8.493-5.884-11.622-.987-.482-1.543-1.554-1.37-2.639 1.672-10.489 5.524-17.835 11.451-21.836 5.235-3.534 11.924-4.401 19.879-2.579 1.237.284 2.065 1.45 1.926 2.712-4.395 39.741 10.023 58.481 10.169 58.666.468.59.644 1.36.479 2.095-.163.735-.649 1.357-1.323 1.694-.016.007-1.56.78-3.685 2.022-.395.23-.829.341-1.261.341zm-25.374-28.965c.628 1.955 4.707 12.49 21.559 19.979.085.038.167.08.247.127.086.05 1.524.901 3.225 2.421-4.112-7.127-12.201-25.556-9.24-56.644-5.58-.911-10.216-.147-13.804 2.275-4.433 2.992-7.462 8.635-9.015 16.787 6.844 4.501 7.085 12.905 7.028 15.055z"/><path d="m189.546 71.511c-.075 0-.15 0-.226-.001-1.354-.013-2.451-1.101-2.477-2.455-.22-12.11-5.239-23.827-14.133-32.993-.81-.834-.938-2.116-.309-3.093.786-1.223 1.502-2.216 2.252-3.125 4.685-5.67 10.991-9.451 17.759-10.647 6.913-1.223 13.484.385 18.496 4.525 5.011 4.141 7.828 10.289 7.932 17.311.101 6.871-2.424 13.777-7.107 19.447-5.716 6.92-13.996 11.031-22.187 11.031zm-11.848-37.436c8.305 9.181 13.22 20.508 14.033 32.317 5.988-.652 11.889-3.941 16.147-9.095 3.928-4.755 6.046-10.504 5.962-16.188-.081-5.533-2.254-10.338-6.117-13.53-3.862-3.192-8.987-4.42-14.44-3.456-5.599.99-10.846 4.153-14.774 8.907-.271.327-.538.673-.811 1.045z"/><path d="m66.401 71.496c-8.2 0-16.367-4.034-22.134-11.014-4.685-5.669-7.209-12.576-7.108-19.447.104-7.022 2.921-13.17 7.932-17.311 5.012-4.141 11.581-5.747 18.496-4.525 6.768 1.196 13.074 4.977 17.758 10.646.999 1.209 1.915 2.516 2.799 3.994.571.956.442 2.174-.317 2.989-8.405 9.009-13.161 20.432-13.391 32.164-.025 1.295-1.036 2.356-2.328 2.445-.568.039-1.138.059-1.707.059zm-7.262-47.694c-4.09 0-7.859 1.294-10.862 3.776-3.863 3.192-6.036 7.997-6.117 13.53-.084 5.684 2.034 11.434 5.963 16.188 4.61 5.581 10.991 8.908 17.419 9.181.774-11.489 5.442-22.572 13.326-31.616-.444-.649-.9-1.256-1.377-1.833-3.928-4.754-9.175-7.917-14.773-8.907-1.213-.213-2.409-.319-3.579-.319z"/><path d="m128 126.668c-11.211 0-21.522-2.727-28.289-7.48-1.13-.793-1.401-2.353-.608-3.482.796-1.13 2.354-1.401 3.483-.608 5.856 4.115 15.357 6.571 25.414 6.571s19.558-2.457 25.414-6.571c1.129-.792 2.688-.522 3.483.608.793 1.13.521 2.689-.608 3.482-6.767 4.754-17.078 7.48-28.289 7.48z"/><path d="m133.729 101.53c-.649 0-1.3-.27-1.76-.73-.47-.47-.74-1.11-.74-1.77s.271-1.3.74-1.77c.11-.11.24-.22.38-.31.13-.09.28-.17.431-.23.149-.06.31-.11.47-.14.319-.07.649-.07.97 0 .16.03.32.08.47.14s.301.14.431.23c.14.09.27.2.38.31.47.47.74 1.11.74 1.77s-.271 1.3-.74 1.77c-.461.46-1.111.73-1.772.73z"/><path d="m122.27 101.53c-.17 0-.33-.02-.489-.05-.16-.03-.32-.08-.471-.14-.149-.06-.3-.14-.43-.23-.14-.09-.271-.2-.38-.31-.12-.12-.22-.25-.311-.38-.09-.14-.17-.28-.229-.43-.07-.16-.11-.31-.15-.47-.029-.16-.05-.33-.05-.49s.021-.33.05-.49c.04-.16.08-.32.15-.47.06-.15.14-.29.229-.43.091-.14.19-.26.311-.38.109-.11.24-.22.38-.31.13-.09.28-.17.43-.23s.311-.11.471-.14c.319-.07.649-.07.97 0 .16.03.319.08.47.14s.3.14.43.23c.141.09.271.2.381.31.119.12.22.24.31.38s.17.28.229.43c.07.15.11.31.15.47.03.16.05.33.05.49s-.02.33-.05.49c-.04.16-.08.31-.15.47-.06.15-.14.29-.229.43-.09.13-.19.26-.31.38-.11.11-.24.22-.381.31-.13.09-.279.17-.43.23s-.31.11-.47.14c-.161.03-.321.05-.481.05z"/><path d="m99.166 90.934c-1.377 0-2.495-1.114-2.5-2.492-.007-2.109.808-4.094 2.294-5.59s3.467-2.324 5.575-2.33h.026c2.099 0 4.072.814 5.562 2.294 1.495 1.486 2.323 3.466 2.33 5.574.005 1.381-1.111 2.504-2.492 2.508-.002 0-.005 0-.008 0-1.377 0-2.495-1.114-2.5-2.492-.003-.773-.306-1.499-.854-2.044-.546-.542-1.27-.841-2.039-.841-.003 0-.006 0-.01 0-.773.002-1.499.306-2.044.854s-.844 1.276-.841 2.049c.005 1.381-1.111 2.504-2.492 2.508-.001.002-.004.002-.007.002z"/><path d="m146.046 90.934c-1.377 0-2.495-1.114-2.5-2.492-.007-2.109.808-4.094 2.294-5.59s3.467-2.324 5.575-2.33h.026c2.099 0 4.073.814 5.562 2.294 1.495 1.486 2.323 3.466 2.33 5.574.005 1.381-1.111 2.504-2.492 2.508-.002 0-.005 0-.008 0-1.377 0-2.495-1.114-2.5-2.492-.003-.773-.306-1.499-.854-2.044-.546-.542-1.27-.841-2.039-.841-.003 0-.006 0-.01 0-.773.002-1.499.306-2.044.854s-.844 1.276-.841 2.049c.005 1.381-1.111 2.504-2.492 2.508-.001.002-.004.002-.007.002z"/><path d="m128 126c-1.381 0-2.5-1.119-2.5-2.5v-12c0-1.381 1.119-2.5 2.5-2.5s2.5 1.119 2.5 2.5v12c0 1.381-1.119 2.5-2.5 2.5z"/><path d="m217.498 203c-.51 0-1.024-.155-1.469-.478-1.116-.812-1.363-2.376-.551-3.492l5.054-6.949c.812-1.117 2.375-1.363 3.492-.552 1.116.812 1.363 2.376.551 3.492l-5.054 6.949c-.489.673-1.25 1.03-2.023 1.03z"/><path d="m223.382 209.977c-.696 0-1.389-.289-1.883-.854-.909-1.04-.804-2.619.236-3.528l6.604-5.776c1.039-.909 2.618-.803 3.527.236.909 1.04.804 2.619-.236 3.528l-6.604 5.776c-.473.414-1.06.618-1.644.618z"/><path d="m228.68 218.014c-.847 0-1.673-.431-2.143-1.208-.713-1.182-.333-2.719.849-3.433l6.321-3.815c1.183-.712 2.719-.333 3.433.849.713 1.182.333 2.719-.849 3.433l-6.321 3.815c-.405.243-.85.359-1.29.359z"/><path d="m38.324 203c-.772 0-1.534-.357-2.023-1.03l-4.998-6.873c-.812-1.117-.565-2.68.551-3.492 1.117-.812 2.68-.565 3.492.552l4.998 6.873c.812 1.117.565 2.68-.551 3.492-.444.323-.959.478-1.469.478z"/><path d="m32.441 209.977c-.584 0-1.171-.204-1.645-.618l-6.49-5.676c-1.04-.909-1.146-2.488-.236-3.527.909-1.04 2.488-1.145 3.527-.236l6.49 5.676c1.04.909 1.146 2.488.236 3.527-.493.565-1.185.854-1.882.854z"/><path d="m27.144 218.014c-.44 0-.886-.116-1.29-.36l-6.177-3.728c-1.182-.713-1.562-2.25-.849-3.432.715-1.183 2.251-1.561 3.433-.849l6.177 3.728c1.182.713 1.562 2.25.849 3.432-.471.778-1.297 1.209-2.143 1.209z"/><path d="m176.247 235.65c-.432 0-.866-.111-1.261-.341-2.125-1.243-3.669-2.015-3.685-2.022-.674-.336-1.16-.958-1.323-1.694-.164-.735.012-1.504.479-2.095.141-.181 14.541-19.126 10.169-58.666-.14-1.262.688-2.428 1.926-2.712 7.954-1.822 14.644-.955 19.879 2.579 5.927 4.001 9.779 11.347 11.451 21.836.173 1.085-.383 2.157-1.37 2.639-6.458 3.158-5.89 11.538-5.884 11.622.021.268-.002.538-.066.798-.146.585-3.81 14.396-24.317 23.571-.452.285-2.412 1.578-4.072 3.581-.49.59-1.202.904-1.926.904zm9.584-63.082c2.961 31.088-5.128 49.517-9.24 56.644 1.7-1.521 3.139-2.372 3.225-2.421.08-.047.162-.089.247-.127 16.804-7.468 20.936-18.072 21.559-19.982-.057-2.156.188-10.553 7.028-15.051-1.553-8.152-4.582-13.795-9.015-16.787-3.589-2.423-8.222-3.186-13.804-2.276z"/><path d="m189.158 255.985c-1.899 0-3.693-.191-5.349-.56-1.146-.254-1.96-1.271-1.958-2.444s.819-2.187 1.965-2.438c1.988-.436 3.294-1.149 3.881-2.121.296-.491.356-.994.194-1.631-.739-2.903-5.563-7.195-12.904-11.483-.634-.37-1.073-1-1.201-1.724s.068-1.466.537-2.031c2.467-2.975 5.369-4.692 5.492-4.763.08-.047.162-.089.247-.127 16.797-7.465 20.933-18.063 21.558-19.98-.067-2.373.213-12.266 9.187-16.254 3.555-1.58 7.082-1.695 10.486-.339 5.907 2.352 11.255 9.191 15.896 20.329 4.146 9.951-1.43 15.728-5.122 18.285-3.13 2.167-5.757 4.609-7.808 7.261-10.984 14.194-24.629 20.02-35.101 20.02zm-8.911-23.329c7.287 4.618 11.483 8.952 12.489 12.902.476 1.866.245 3.69-.664 5.288 8.646-.963 19.294-6.389 28.231-17.941 2.365-3.057 5.365-5.854 8.916-8.312 4.416-3.059 5.514-7.066 3.354-12.251-4.046-9.709-8.586-15.797-13.13-17.606-2.135-.85-4.295-.765-6.605.263-6.819 3.031-6.216 11.706-6.209 11.793.021.27-.001.541-.066.803-.146.585-3.81 14.396-24.317 23.571-.267.167-1.056.684-1.999 1.49z"/><path d="m128 145.912c-27.105 0-49.158-13.737-49.158-30.623 0-4.613 1.653-9.175 4.798-13.287-3.144-6.067-4.798-13.146-4.798-20.588 0-20.058 12.304-36.375 27.427-36.375 8.594 0 16.594 5.308 21.731 14.148 5.138-8.84 13.138-14.148 21.731-14.148 15.123 0 27.427 16.318 27.427 36.375 0 7.442-1.654 14.521-4.798 20.588 3.145 4.112 4.798 8.674 4.798 13.287 0 16.886-22.053 30.623-49.158 30.623zm-21.731-95.873c-12.366 0-22.427 14.075-22.427 31.375 0 7.2 1.716 13.982 4.963 19.615.532.923.421 2.082-.277 2.887-3.109 3.583-4.686 7.409-4.686 11.373 0 14.128 19.81 25.623 44.158 25.623s44.158-11.495 44.158-25.623c0-3.964-1.576-7.79-4.686-11.373-.698-.805-.81-1.964-.277-2.887 3.247-5.633 4.963-12.416 4.963-19.615 0-17.3-10.061-31.375-22.427-31.375-7.958 0-15.399 6.032-19.422 15.742-.387.935-1.299 1.543-2.31 1.543s-1.923-.609-2.31-1.543c-4.021-9.71-11.462-15.742-19.42-15.742z"/><path d="m170.343 129.602c-.603 0-1.205-.217-1.683-.651-.962-.875-1.092-2.342-.299-3.373 2.52-3.276 3.797-6.738 3.797-10.289 0-3.964-1.576-7.79-4.686-11.373-.698-.805-.81-1.964-.277-2.887 3.247-5.633 4.963-12.416 4.963-19.615 0-17.3-10.061-31.375-22.427-31.375-7.958 0-15.399 6.032-19.422 15.742-.387.935-1.299 1.543-2.31 1.543s-1.923-.609-2.31-1.543c-4.022-9.71-11.464-15.742-19.422-15.742-12.366 0-22.427 14.075-22.427 31.375 0 7.2 1.716 13.982 4.963 19.615.532.923.421 2.082-.277 2.887-3.109 3.583-4.686 7.409-4.686 11.373 0 3.551 1.277 7.012 3.797 10.289.793 1.031.663 2.498-.299 3.373-.962.876-2.436.867-3.386-.019-7.944-7.395-12.144-16.311-12.144-25.787 0-.595.018-1.187.052-1.775.213-3.619-.324-6.84-1.596-9.577-3.223-6.938-4.857-14.3-4.857-21.884 0-22.608 14.896-43.061 37.951-52.104 1.836-.721 3.509-1.9 4.838-3.41 3.797-4.317 10.643-10.287 21.694-14.212 1.068-.379 2.271-.154 3.132.593s1.257 1.903 1.033 3.017l-1.087 5.432c3.586-1.477 7.409-2.591 11.41-3.322 1.117-.203 2.268.212 2.998 1.086.731.873.939 2.076.542 3.139l-1.922 5.137c27.112 6.924 45.87 29.126 45.87 54.644 0 8.131-1.879 15.99-5.585 23.359-1.503 2.988-2.214 5.964-2.113 8.844.013.339.019.686.019 1.033 0 9.476-4.199 18.392-12.144 25.787-.477.446-1.088.67-1.7.67zm-41.843-123.516c-8.252 3.496-13.504 8.149-16.548 11.61-1.853 2.106-4.191 3.752-6.766 4.762-21.126 8.288-34.777 26.913-34.777 47.45 0 6.85 1.478 13.504 4.393 19.777 1.623 3.494 2.313 7.523 2.053 11.974-.028.491-.044.987-.044 1.485 0 3.565.715 7.051 2.111 10.387.364-4.01 1.973-7.941 4.718-11.53-3.144-6.067-4.798-13.146-4.798-20.588 0-20.058 12.304-36.375 27.427-36.375 8.594 0 16.594 5.308 21.731 14.148 5.138-8.84 13.138-14.148 21.731-14.148 15.123 0 27.427 16.318 27.427 36.375 0 7.442-1.654 14.521-4.798 20.588 2.745 3.589 4.354 7.521 4.718 11.53 1.396-3.336 2.111-6.822 2.111-10.387 0-.285-.004-.568-.015-.852-.132-3.734.758-7.525 2.643-11.271 3.353-6.666 5.052-13.769 5.052-21.113 0-23.798-18.099-44.463-44.012-50.255-.896-.201-1.659-.778-2.094-1.582-.434-.802-.499-1.751-.179-2.606l1.48-3.958c-3.605.886-7.02 2.125-10.186 3.697-1.091.541-2.371.42-3.338-.321-.963-.737-1.414-1.936-1.177-3.127zm.655-3.277c-.001.001-.001.003-.001.005z"/><path d="m178.551 255.982c-10.37 0-22.805-3.776-24.884-4.432-2.006-.632-4.043.422-6.397 1.646-3.433 1.783-8.131 4.226-13.198-.098-.536-.458-.854-1.12-.876-1.824-.461-14.818 12.164-22.956 16.044-25.097l.326-.185c.786-.445 5.76-2.89 11.694 2.72 2.476 2.341 8.187.54 10.527-.344 1.036-.392 2.197-.057 2.868.817.075.099.143.202.202.308 4.169 2.216 15.812 8.934 17.804 15.786.59 2.03.353 4.01-.685 5.727-2.261 3.745-7.508 4.975-13.425 4.976zm-26.125-9.625c.884 0 1.799.126 2.745.424 11.354 3.579 29.545 6.575 32.526 1.64.211-.348.419-.861.162-1.746-1.228-4.226-10.145-10.093-15.914-13.064-4.667 1.513-10.411 2.243-14.121-1.266-3.432-3.245-5.673-2.077-5.693-2.064-.033.021-.066.041-.101.06l-.351.199c-11.411 6.297-13.322 14.961-13.482 19.395 1.988 1.191 3.729.401 6.767-1.177 2.114-1.097 4.623-2.401 7.462-2.401z"/><path d="m77.45 255.982c-5.919 0-11.164-1.23-13.427-4.975-1.037-1.716-1.274-3.696-.685-5.727 1.991-6.853 13.635-13.57 17.804-15.786.06-.106.127-.209.202-.308.67-.874 1.832-1.209 2.868-.817 2.341.884 8.05 2.687 10.527.344 5.934-5.609 10.908-3.166 11.694-2.72l.351.199c3.855 2.127 16.48 10.265 16.02 25.083-.022.705-.34 1.367-.876 1.824-5.066 4.322-9.765 1.881-13.198.098-2.354-1.224-4.395-2.278-6.397-1.646-2.079.655-14.514 4.431-24.883 4.431zm6.605-22.37c-5.771 2.976-14.69 8.847-15.914 13.065-.257.884-.048 1.396.162 1.745 1.383 2.289 6.642 3.105 14.422 2.24 8.706-.968 17.169-3.585 18.104-3.88 3.984-1.255 7.435.537 10.207 1.977 3.037 1.579 4.779 2.367 6.767 1.177-.159-4.433-2.068-13.096-13.458-19.381l-.375-.213c-.034-.019-.067-.039-.101-.06-.169-.085-2.341-1.106-5.693 2.064-3.711 3.508-9.456 2.779-14.121 1.266z"/><path d="m135.694 253.689c-.583 0-1.16-.204-1.622-.597l-.104-.088c-.023-.02-.046-.039-.069-.059-3.762-1.6-8.011-1.604-11.772-.01-.056.049-.111.097-.166.145-.188.162-.4.295-.629.396-.786.343-1.703.266-2.415-.215-.71-.48-1.136-1.287-1.109-2.144.121-3.858-.936-13.576-13.319-20.48-.897-.5-1.397-1.5-1.26-2.518.591-4.378.994-14.771-2.94-35.192-.051-.269-.1-.542-.146-.824-1.186-7.264.872-14.651 5.647-20.268 4.749-5.588 11.641-8.793 18.907-8.794h6.607c7.266 0 14.157 3.205 18.907 8.793 4.775 5.617 6.833 13.004 5.648 20.267-.048.288-.096.564-.147.829-3.934 20.419-3.53 30.812-2.939 35.189.138 1.019-.362 2.018-1.26 2.518-12.38 6.903-13.438 16.618-13.319 20.475.03.988-.524 1.902-1.416 2.331-.345.165-.716.246-1.084.246zm-7.694-6.946c1.807 0 3.612.244 5.368.731 1.363-10.937 9.905-17.613 14.264-20.347-.491-5.406-.477-16.21 3.171-35.146.043-.222.083-.451.122-.688.948-5.81-.7-11.723-4.523-16.221-3.798-4.468-9.301-7.031-15.098-7.031h-6.607c-5.797 0-11.3 2.563-15.098 7.032-3.823 4.498-5.472 10.411-4.522 16.222.039.239.08.471.122.694 3.646 18.928 3.661 29.732 3.17 35.139 4.358 2.734 12.9 9.411 14.264 20.347 1.755-.488 3.56-.732 5.367-.732z"/><path d="m209.166 186.521c-.295 0-.592-.052-.874-.158-.682-.254-1.219-.793-1.471-1.476-1.862-5.038-4.599-8.611-8.133-10.622-.798-.454-1.282-1.309-1.263-2.226.02-.918.54-1.751 1.356-2.17 8.829-4.535 14.179-9.489 16.836-15.589 4.504-10.338-.779-15.242-6.372-20.435-.79-.734-1.567-1.456-2.299-2.177-9.541-9.407-13.371-20.241-10.787-30.506 3.083-12.244 14.634-22.133 31.69-27.13 6.067-1.78 10.632 2.046 12.007 6.741 1.42 4.844-.396 10.7-6.612 12.521-6.605 1.936-15.153 6.101-17.508 11.472-.947 2.161-.825 4.388.373 6.811 1.315 2.659 3.809 4.994 6.694 7.698 4.522 4.236 9.647 9.038 12.579 17.074 4.985 13.667-.814 27.707-7.904 36.291-4.249 5.143-9.846 9.583-17.11 13.572-.372.205-.786.309-1.202.309zm-4.583-14.131c2.32 2.081 4.259 4.774 5.798 8.055 5.531-3.307 9.881-6.917 13.243-10.989 7.802-9.444 10.574-21.767 7.062-31.393-2.522-6.917-6.984-11.096-11.3-15.139-3.106-2.91-6.041-5.659-7.759-9.13-1.867-3.775-2.025-7.488-.47-11.035 3.828-8.733 16.797-13.125 20.681-14.262 3.687-1.081 3.759-4.479 3.221-6.317-.629-2.145-2.526-4.31-5.803-3.349-15.088 4.421-25.647 13.226-28.248 23.553-2.165 8.6 1.103 17.495 9.448 25.725.697.688 1.438 1.375 2.19 2.073 5.687 5.279 13.475 12.508 7.555 26.096-2.752 6.32-7.758 11.502-15.618 16.112z"/><path d="m189.152 67.987c-.576 0-1.138-.199-1.587-.568-.518-.425-.843-1.041-.903-1.708-.808-8.961-4.242-17.611-9.935-25.017-.72-.937-.686-2.25.082-3.148 7.188-8.404 18.624-10.193 26.038-4.067 3.662 3.026 5.721 7.509 5.796 12.623.073 4.962-1.745 9.945-5.121 14.029-3.651 4.42-8.793 7.278-14.106 7.842-.088.01-.176.014-.264.014zm-7.185-28.613c4.963 6.994 8.16 14.914 9.354 23.151 3.144-.897 6.096-2.853 8.348-5.579 2.62-3.17 4.032-6.995 3.977-10.771-.054-3.625-1.468-6.765-3.982-8.842-4.777-3.945-12.378-2.955-17.697 2.041z"/><path d="m68.12 68.067c-.021 0-.042 0-.063-.001-5.855-.146-11.534-3.038-15.58-7.935-3.375-4.084-5.193-9.067-5.12-14.029.075-5.114 2.134-9.597 5.796-12.623 7.438-6.146 19.237-4.188 26.301 4.362.124.149.235.3.347.451l.13.174c.683.885.695 2.114.031 3.013-5.352 7.242-8.585 15.647-9.352 24.307-.115 1.294-1.199 2.281-2.49 2.281zm-4.689-33.188c-2.601 0-5.084.795-7.093 2.455-2.515 2.077-3.929 5.217-3.982 8.842-.056 3.776 1.356 7.601 3.976 10.771 2.543 3.078 6.009 5.174 9.586 5.871 1.119-8.043 4.156-15.813 8.879-22.702-3.22-3.41-7.426-5.237-11.366-5.237z"/></svg>