<svg id="Capa_1" enable-background="new 0 0 511.99 511.99" height="512" viewBox="0 0 511.99 511.99" width="512" xmlns="http://www.w3.org/2000/svg"><g><path d="m217.33 313.034v-32.404c0-.741-.601-1.343-1.343-1.343h-21.582c-.847 0-1.483-.775-1.316-1.606l6.375-31.877c.166-.831-.469-1.606-1.316-1.606h-32.35c-.64 0-1.191.452-1.316 1.079l-6.586 32.93c-.126.628-.676 1.079-1.316 1.079h-32.35c-.847 0-1.483-.775-1.316-1.606l6.375-31.877c.166-.831-.469-1.606-1.316-1.606h-32.35c-.64 0-1.191.452-1.316 1.079l-6.586 32.93c-.126.628-.676 1.079-1.316 1.079h-43.175c-.741 0-1.343.601-1.343 1.343v32.403c0 .741.601 1.343 1.343 1.343h35.617c.847 0 1.483.775 1.316 1.606l-6.481 32.403c-.126.628-.676 1.079-1.316 1.079h-29.136c-.741 0-1.343.601-1.343 1.343v32.403c0 .741.601 1.343 1.343 1.343h21.582c.847 0 1.483.775 1.316 1.606l-6.375 31.877c-.166.831.469 1.606 1.316 1.606h32.35c.64 0 1.191-.452 1.316-1.079l6.586-32.93c.126-.628.676-1.079 1.316-1.079h32.35c.847 0 1.483.775 1.316 1.606l-6.375 31.877c-.166.831.469 1.606 1.316 1.606h32.35c.64 0 1.191-.452 1.316-1.079l6.586-32.93c.126-.628.676-1.079 1.316-1.079h43.172c.741 0 1.343-.601 1.343-1.343v-32.403c0-.741-.601-1.343-1.343-1.343h-35.614c-.847 0-1.483-.775-1.316-1.606l6.481-32.403c.126-.628.676-1.079 1.316-1.079h29.136c.742 0 1.343-.601 1.343-1.342zm-74.787 36.431h-32.35c-.847 0-1.483-.775-1.316-1.606l6.481-32.403c.126-.628.676-1.079 1.316-1.079h32.35c.847 0 1.483.775 1.316 1.606l-6.481 32.403c-.125.627-.676 1.079-1.316 1.079z" fill="#617881"/><g fill="#f6e781"><circle cx="420.429" cy="57.163" r="14.295"/><circle cx="364.834" cy="21.785" r="14.295"/><circle cx="455.807" cy="112.758" r="14.295"/></g><path d="m441.788 109.956-36.52-7.304 6.891-33.826c-.644-.458-1.26-.976-1.837-1.554-.578-.578-1.096-1.193-1.554-1.838l-34.188 6.957-7.246-36.529c-3.578.632-7.35-.105-10.475-2.21l-32.175 48.361c-.187.281-.402.544-.641.783l-19.063 19.063c-.438.438-.438 1.149 0 1.588l69.171 69.17c.438.438 1.149.438 1.588 0l19.065-19.065c.238-.238.499-.452.779-.638l48.332-32.221c-2.145-3.207-2.853-7.086-2.127-10.737z" fill="#ffd064"/><path d="m412.461 449.268h-50.086c-.703 0-1.273-.57-1.273-1.273v-288.427l-41.052-41.052h-27.852c-.703 0-1.273.57-1.273 1.273v6.241c0 15.229-12.345 27.574-27.574 27.574h-23.786c-.703 0-1.273.57-1.273 1.273v58.423c0 .703.57 1.273 1.273 1.273h50.086c.703 0 1.273.57 1.273 1.273v232.148c0 .703-.57 1.273-1.273 1.273h-50.086c-.703 0-1.273.57-1.273 1.273v52.676c0 .703.57 1.273 1.273 1.273h172.896c.703 0 1.273-.57 1.273-1.273v-52.676c0-.702-.57-1.272-1.273-1.272z" fill="#617881"/><path d="m321.101 409.266c0 11.047 8.955 20.002 20.002 20.002h12.629c2.602 0 5.089.497 7.369 1.401v-271.101l-40-40z" fill="#475959"/><path d="m412.461 449.268h-38.727v15.22c0 11.047-8.955 20.002-20.002 20.002h-115.44v18.727c0 .703.57 1.273 1.273 1.273h172.896c.703 0 1.273-.57 1.273-1.273v-52.676c0-.703-.57-1.273-1.273-1.273z" fill="#475959"/><path d="m215.987 271.788h-14.071l4.901-24.509c1.098-5.477-3.094-10.58-8.67-10.58h-32.35c-4.2 0-7.847 2.989-8.671 7.108l-5.596 27.98h-19.792l4.903-24.513c1.095-5.476-3.097-10.576-8.671-10.576h-32.35c-4.2 0-7.847 2.989-8.671 7.108l-5.657 28.282c-3.113.913-5.387 3.79-5.387 7.198 0 4.142 3.358 7.5 7.5 7.5h2.995c4.2 0 7.847-2.989 8.671-7.108l5.596-27.98h19.791l-4.902 24.513c-1.096 5.487 3.108 10.575 8.671 10.575h32.351c4.2 0 7.847-2.989 8.671-7.108l5.596-27.98h19.792l-4.902 24.509c-1.097 5.477 3.095 10.579 8.67 10.579h15.424v20.088h-22.979c-4.2 0-7.847 2.989-8.671 7.108l-6.481 32.404c-1.095 5.476 3.097 10.576 8.671 10.576h29.46v20.089h-37.015c-4.2 0-7.847 2.989-8.671 7.108l-5.596 27.98h-19.792l4.903-24.513c1.095-5.476-3.097-10.576-8.671-10.576h-32.35c-4.2 0-7.847 2.989-8.671 7.108l-5.596 27.98h-19.79l4.903-24.513c1.095-5.476-3.097-10.576-8.671-10.576h-15.425v-20.089h22.979c4.2 0 7.847-2.989 8.671-7.108l6.48-32.401c1.097-5.477-3.095-10.579-8.67-10.579h-29.46v-20.152c3.679-.48 6.519-3.627 6.519-7.437 0-4.142-3.358-7.5-7.5-7.5h-5.176c-4.875 0-8.842 3.967-8.842 8.843v32.403c0 4.875 3.967 8.842 8.842 8.842h28.106l-4.018 20.088h-24.088c-4.875 0-8.842 3.967-8.842 8.843v32.403c0 4.876 3.967 8.843 8.842 8.843h14.071l-4.902 24.512c-1.095 5.477 3.097 10.576 8.671 10.576h32.35c4.2 0 7.847-2.989 8.671-7.108l5.596-27.98h19.791l-4.902 24.512c-1.095 5.477 3.097 10.576 8.671 10.576h32.35c4.2 0 7.847-2.989 8.671-7.108l5.596-27.98h38.124c4.876 0 8.843-3.967 8.843-8.843v-32.403c0-4.876-3.967-8.843-8.843-8.843h-28.106l4.018-20.088h24.088c4.876 0 8.843-3.967 8.843-8.842v-32.399c-.001-4.876-3.968-8.842-8.844-8.842z"/><path d="m110.193 356.964h32.35c4.2 0 7.847-2.989 8.671-7.108l6.481-32.405c1.096-5.487-3.108-10.575-8.671-10.575h-32.351c-4.201 0-7.847 2.989-8.671 7.108l-6.48 32.404c-1.095 5.477 3.097 10.576 8.671 10.576zm11.528-35.088h19.792l-4.018 20.088h-19.792z"/><path d="m471.219 97.346c-8.498-8.498-22.324-8.499-30.823 0-1.235 1.235-2.303 2.592-3.194 4.044l-23.083-4.617 3.664-17.985c6.518.791 13.2-1.354 18.058-6.214 8.498-8.498 8.498-22.325 0-30.823-8.498-8.499-22.325-8.498-30.824 0-4.921 4.921-6.992 11.63-6.213 18.055l-18.335 3.731-4.558-22.979c1.548-.913 3.007-2.034 4.336-3.363 8.498-8.499 8.497-22.326 0-30.823-8.498-8.498-22.325-8.498-30.823 0-7.682 7.682-8.419 19.719-2.212 28.238l-4.492 6.751c-2.294 3.449-1.359 8.104 2.09 10.398 3.456 2.3 8.11 1.351 10.398-2.09l4.468-6.716c.49.119.983.22 1.479.304l6.068 30.59c.388 1.957 1.541 3.679 3.202 4.785 1.658 1.103 3.691 1.504 5.65 1.105l27.34-5.564-5.496 26.978c-.828 4.067 1.808 8.037 5.878 8.852l30.468 6.094c.092.599.208 1.192.348 1.777l-43.193 28.796c-1.828 1.218-1.459 1.223-16.477 16.131l-60.151-60.152c14.969-15.083 14.918-14.656 16.135-16.485l4.419-6.642c2.294-3.449 1.359-8.104-2.089-10.399-3.447-2.294-8.104-1.358-10.399 2.089l-4.289 6.446-18.891 18.891c-3.372 3.368-3.375 8.825-.003 12.197l2.268 2.268h-9.746c-4.837 0-8.773 3.936-8.773 8.773v6.242c0 11.069-9.005 20.074-20.074 20.074h-23.786c-4.838 0-8.773 3.936-8.773 8.773v58.424c0 4.838 3.936 8.773 8.773 8.773h43.859v219.694h-43.859c-4.838 0-8.773 3.936-8.773 8.773v52.676c0 4.837 3.936 8.773 8.773 8.773h172.896c4.837 0 8.773-3.936 8.773-8.773v-52.676c0-4.837-3.936-8.773-8.773-8.773h-43.86v-66.048c0-4.142-3.358-7.5-7.5-7.5s-7.5 3.358-7.5 7.5v72.275c0 4.837 3.936 8.773 8.773 8.773h43.859v40.222h-160.441v-40.222h43.86c4.837 0 8.773-3.936 8.773-8.773v-232.148c0-4.837-3.936-8.773-8.773-8.773h-43.86v-45.968h17.559c19.34 0 35.074-15.734 35.074-35.074l18.521-.013 36.656 36.656v178.045c0 4.142 3.358 7.5 7.5 7.5s7.5-3.358 7.5-7.5v-163.045l.245.245c3.362 3.362 8.832 3.362 12.194 0l18.898-18.898 43.003-28.669c3.815 2.794 8.341 4.191 12.867 4.191 11.978 0 21.795-9.664 21.795-21.785-.001-5.822-2.268-11.295-6.384-15.412zm-111.19-80.366c2.65-2.65 6.961-2.649 9.61 0s2.649 6.961 0 9.61c-2.65 2.649-6.961 2.649-9.61 0s-2.649-6.961 0-9.61zm55.595 35.378c2.647-2.648 6.96-2.651 9.61 0 2.65 2.649 2.65 6.961 0 9.61-2.385 2.385-6.1 2.605-8.709.758-.629-.442-1.193-.997-1.654-1.652-1.834-2.578-1.657-6.307.753-8.716zm44.988 65.205c-2.65 2.65-6.961 2.649-9.61 0-2.667-2.666-2.644-6.966 0-9.61 2.649-2.649 6.96-2.649 9.61 0 2.655 2.655 2.656 6.954 0 9.61z"/><path d="m369.639 138.28c2.929 2.929 7.678 2.929 10.606 0 2.929-2.929 2.929-7.678 0-10.606l-30.325-30.325c-2.929-2.929-7.678-2.929-10.606 0-2.929 2.929-2.929 7.678 0 10.606z"/></g></svg>