<svg id="Capa_1" enable-background="new 0 0 510 510" height="512" viewBox="0 0 510 510" width="512" xmlns="http://www.w3.org/2000/svg"><path d="m300.341 330.684c0 .28.01.56.01.84.45 27.77 24.45 50.47 52.22 50.47 25.62 0 41.43 20.7 41.43 41.78 0 12.82-5.85 25.78-18.88 34.31-37.71 24.68-82.72 39.13-131.089 39.42-1.66.02-3.32.01-4.99-.01-134.62-1.881-241.18-111.87-239.009-246.48 2.139-132.099 109.879-238.528 242.478-238.528.51 0 1.02 0 1.52.01 78.97.479 148.619 38.61 192.479 96.979 52.55 69.95 2.66 169.869-84.84 169.869-28.359 0-51.329 22.99-51.329 51.34z" fill="#bfebff"/><path d="m300.341 330.684c0 .28.01.56.01.84.45 27.77 24.45 50.47 52.22 50.47 25.62 0 41.43 20.7 41.43 41.78 0 12.82-5.85 25.78-18.88 34.31-37.71 24.68-82.72 39.13-131.089 39.42v-485.008c78.97.479 148.619 38.61 192.479 96.979 52.55 69.95 2.66 169.869-84.84 169.869-28.36 0-51.33 22.99-51.33 51.34z" fill="#7ed7ff"/><path d="m144.132 249.724c0 27.97-22.68 50.65-50.65 50.65-27.98 0-50.65-22.68-50.65-50.65 0-27.979 22.67-50.659 50.65-50.659 27.97 0 50.65 22.68 50.65 50.659z" fill="#fd3186"/><path d="m144.132 249.724c0 27.97-22.68 50.65-50.65 50.65v-101.31c27.97.001 50.65 22.681 50.65 50.66z" fill="#c7318b"/><path d="m217.931 387.884c0 26.02-21.1 47.12-47.12 47.12-26.03 0-47.13-21.1-47.13-47.12 0-26.03 21.1-47.13 47.13-47.13 26.021 0 47.12 21.1 47.12 47.13z" fill="#89c247"/><path d="m217.931 387.884c0 26.02-21.1 47.12-47.12 47.12v-94.25c26.021 0 47.12 21.1 47.12 47.13z" fill="#47ad92"/><path d="m500.034 406.378c-13.298 13.298-34.861 13.286-48.144-.026l-204.422-216.651 35.898-35.898 216.644 204.432c13.31 13.283 13.322 34.846.024 48.143z" fill="#2d3e53"/><path d="m310.761 217.11c-18.04 18.04-44.27 22.9-66.73 14.6-8.3-3.07-16.08-7.94-22.74-14.6-19.03-19.03-29.88-82.969-33.86-111.339-.98-7 5-12.98 12-12 11.06 1.55 27.51 4.15 44.6 7.86 26.77 5.82 55.11 14.39 66.73 26.01 24.71 24.7 24.71 64.759 0 89.469z" fill="#ff9259"/><path d="m310.761 217.11c-18.04 18.04-44.27 22.9-66.73 14.6v-130.079c26.77 5.82 55.11 14.39 66.73 26.01 24.71 24.7 24.71 64.759 0 89.469z" fill="#ff7169"/></svg>